<svg id="Layer_1" data-name="Layer 1" xmlns="http://www.w3.org/2000/svg" viewBox="0 0 65 65"><defs><style>.cls-1{fill:#999;}</style></defs><title>Upload_Upload</title><path class="cls-1" d="M32.5,1A31.5,31.5,0,1,1,1,32.5,31.54,31.54,0,0,1,32.5,1m0-1A32.5,32.5,0,1,0,65,32.5,32.5,32.5,0,0,0,32.5,0h0Z"/><polygon class="cls-1" points="41.91 28.2 32.59 18.65 23.09 28.39 24.17 29.44 31.87 21.54 31.87 40.05 33.37 40.05 33.37 21.59 40.83 29.25 41.91 28.2"/><polygon class="cls-1" points="40.66 40.35 40.66 44.35 24.34 44.35 24.34 40.35 22.34 40.35 22.34 44.35 22.34 46.35 24.34 46.35 40.66 46.35 42.66 46.35 42.66 44.35 42.66 40.35 40.66 40.35"/></svg>